<svg width="1742" height="1246" viewBox="0 0 1742 1246" fill="none" xmlns="http://www.w3.org/2000/svg">
<path d="M1740.07 1201.98C1703.21 1133.37 1661.21 1066.61 1610.36 1006.87C1560.9 948.984 1503.51 898.571 1439.12 858.427C1400.86 834.62 1360.73 813.148 1318.74 797.277C1277.68 781.873 1234.29 771.604 1190.9 765.535C1147.51 759.467 1104.11 757.133 1060.26 754.799C1050.92 754.333 1041.13 753.866 1031.79 753.399C1026.66 752.932 1021.53 752.932 1015.93 752.465C1014.06 752.465 1012.2 752.465 1010.8 751.999C1008.93 751.999 1007.07 751.532 1005.67 751.532C1013.13 751.999 1014.53 751.999 1009.86 751.999C989.335 750.598 968.805 748.731 948.276 745.93C924.013 742.663 899.751 738.462 875.955 732.86C873.156 732.393 870.356 731.46 867.557 730.993C865.691 730.526 852.626 727.725 862.891 730.059C856.826 728.659 851.227 726.792 845.628 724.925C837.696 722.591 830.23 720.257 822.765 717.923C793.837 708.12 765.842 695.05 739.713 678.713C742.046 680.113 744.379 681.513 746.712 682.914C695.388 651.172 652.929 608.227 617.469 559.681C607.67 546.144 598.339 531.674 589.007 517.203C590.407 519.07 591.34 520.938 592.74 523.272C539.083 435.982 502.223 339.823 455.564 249.266C411.239 163.377 355.716 80.7547 267.065 36.4096C208.742 7.00188 141.087 -1.86713 76.699 0.466821C62.2349 0.933611 47.7708 3.73435 34.2399 9.33583C24.9083 13.0701 10.9108 20.072 4.84521 28.941C0.64596 35.0093 -2.15353 42.9447 4.37863 49.013C11.844 55.548 23.5085 56.9484 33.3068 56.9484C43.105 56.4816 52.9032 56.4816 63.1681 56.9484C67.3673 56.9484 71.5666 57.4152 75.7658 57.4152C86.4972 57.882 65.0344 56.4816 72.4997 56.9484C74.8326 56.9484 77.1656 57.4152 79.4985 57.4152C95.8289 58.8156 111.693 61.6163 127.557 65.3506C129.423 65.8174 131.756 66.2842 133.622 66.751C120.091 63.9502 128.023 65.3506 131.289 66.2842C134.555 67.2178 138.288 68.1514 141.554 69.5517C148.553 71.8857 155.551 74.2196 162.55 77.4872C176.081 83.0886 189.145 90.0905 202.21 97.5591C199.877 96.1588 197.544 94.7584 195.211 93.358C247.002 125.567 286.195 172.712 318.389 224.059C316.989 222.192 316.056 220.325 314.656 217.991C350.117 275.873 377.645 337.956 406.106 399.572C436.434 464.923 468.162 529.807 509.221 589.089C551.214 649.772 603.471 700.652 667.859 736.595C707.519 759 749.978 772.537 793.837 784.207C855.426 800.545 918.414 806.146 981.87 809.881C1010.33 811.748 1038.79 813.148 1067.25 815.015C1052.79 814.082 1064.45 815.015 1068.19 815.015C1071.45 815.482 1075.19 815.482 1078.45 815.949C1085.92 816.416 1092.92 817.349 1100.38 818.283C1114.85 819.683 1128.84 821.55 1142.84 823.884C1157.3 826.218 1171.77 829.019 1185.77 832.753C1187.63 833.22 1189.5 833.687 1190.9 834.154C1192.3 834.62 1197.9 836.021 1192.77 834.62C1187.63 833.22 1192.3 834.62 1193.23 834.62C1195.1 835.087 1196.96 835.554 1198.36 836.021C1206.3 838.355 1214.23 840.689 1222.16 843.489C1252.02 853.759 1280.95 867.296 1308.94 882.233C1321.08 888.768 1332.74 895.77 1344.4 902.772C1342.07 901.371 1339.74 899.971 1337.41 898.571C1420.92 949.917 1491.84 1018.54 1550.17 1097.89C1566.5 1120.3 1582.36 1143.64 1596.83 1167.44C1595.43 1165.57 1594.49 1163.71 1593.09 1161.37C1607.09 1184.25 1620.62 1207.59 1633.22 1231.39C1643.95 1251 1676.15 1246.33 1693.88 1241.19C1706.47 1237.46 1720.47 1232.79 1730.27 1223.92C1733.53 1219.26 1744.27 1209.45 1740.07 1201.98Z" fill="url(#paint0_linear_1_2)"/>
<defs>
<linearGradient id="paint0_linear_1_2" x1="375.736" y1="-195.002" x2="1354.34" y2="1419.27" gradientUnits="userSpaceOnUse">
<stop stop-color="#A47CFF"/>
<stop offset="0.4076" stop-color="#C593EC"/>
<stop offset="0.7715" stop-color="#DDA2DF"/>
<stop offset="1" stop-color="#E5A8DA"/>
</linearGradient>
</defs>
</svg>
